o combat
v -0.013358 0.040638 5e-05
v 0.0 0.0 5e-05
v 0.0 0.046572 5e-05
v -0.017718 0.031469 5e-05
v 0.0 0.0 5e-05
v -0.01032 0.046572 5e-05
v 0.013358 0.040638 5e-05
v 0.017718 0.031469 5e-05
v 0.01032 0.046572 5e-05
v -0.013358 0.040638 -5e-05
v -0.0 0.0 -5e-05
v -0.0 0.046572 -5e-05
v -0.017718 0.031469 -5e-05
v -0.0 0.0 -5e-05
v -0.01032 0.046572 -5e-05
v 0.013358 0.040638 -5e-05
v 0.017718 0.031469 -5e-05
v 0.01032 0.046572 -5e-05
vn -0.0 -0.0 1.0
vn -0.0 -0.0 -1.0
vn -0.8901 0.4557 -0.0
vn -0.8714 -0.4906 -0.0
vn -0.9031 0.4295 -0.0
vn -0.0 1.0 -0.0
vn 0.8901 0.4557 -0.0
vn 0.8714 -0.4906 -0.0
vn 0.9031 0.4295 -0.0
vt 0.7868247015374044 0.8725843854676629
vt 0.5 0.0
vt 0.5 1.0
vt 0.8804431847461994 0.6757064330499011
vt 0.5 0.0
vt 0.7215923730997166 1.0
vt 0.21317529846259564 0.8725843854676629
vt 0.11955681525380057 0.6757064330499011
vt 0.2784076269002834 1.0
vt 0.21317529846259559 0.8725843854676629
vt 0.5 0.0
vt 0.5 1.0
vt 0.11955681525380057 0.6757064330499011
vt 0.5 0.0
vt 0.2784076269002834 1.0
vt 0.7868247015374044 0.8725843854676629
vt 0.8804431847461994 0.6757064330499011
vt 0.7215923730997166 1.0
f 3/3/1 6/6/1 1/1/1 2/2/1
f 2/2/1 1/1/1 4/4/1 5/5/1
f 3/3/1 2/2/1 7/7/1 9/9/1
f 2/2/1 5/5/1 8/8/1 7/7/1
f 12/12/2 11/11/2 10/10/2 15/15/2
f 11/11/2 14/14/2 13/13/2 10/10/2
f 12/12/2 18/18/2 16/16/2 11/11/2
f 11/11/2 16/16/2 17/17/2 14/14/2
f 1/1/3 6/6/3 15/15/3 10/10/3
f 5/5/4 4/4/4 13/13/4 14/14/4
f 4/4/5 1/1/5 10/10/5 13/13/5
f 6/6/6 3/3/6 12/12/6 15/15/6
f 9/9/7 7/7/7 16/16/7 18/18/7
f 8/8/8 5/5/8 14/14/8 17/17/8
f 7/7/9 8/8/9 17/17/9 16/16/9
f 3/3/6 9/9/6 18/18/6 12/12/6
