o mini_delta
v -0.013169 0.013571 5e-05
v 0.0 0.0 5e-05
v 0.0 0.034096 5e-05
v -0.012894 0.034096 5e-05
v 0.013169 0.013571 5e-05
v 0.012894 0.034096 5e-05
v -0.013169 0.013571 -5e-05
v 0.0 -0.0 -5e-05
v 0.0 0.034096 -5e-05
v -0.012894 0.034096 -5e-05
v 0.013169 0.013571 -5e-05
v 0.012894 0.034096 -5e-05
vn -0.0 -0.0 1.0
vn -0.0 -0.0 -1.0
vn -0.9999 0.0134 -0.0
vn -0.7177 -0.6964 -0.0
vn -0.0 1.0 -0.0
vn 0.9999 0.0134 -0.0
vn 0.7177 -0.6964 -0.0
vt 0.8862329892069452 0.398023228531206
vt 0.5 0.0
vt 0.5 1.0
vt 0.8781675269826372 1.0
vt 0.11376701079305485 0.398023228531206
vt 0.12183247301736277 1.0
vt 0.1137670107930549 0.398023228531206
vt 0.5 0.0
vt 0.5 1.0
vt 0.12183247301736277 1.0
vt 0.8862329892069452 0.398023228531206
vt 0.8781675269826372 1.0
f 3/3/1 4/4/1 1/1/1 2/2/1
f 3/3/1 2/2/1 5/5/1 6/6/1
f 9/9/2 8/8/2 7/7/2 10/10/2
f 9/9/2 12/12/2 11/11/2 8/8/2
f 1/1/3 4/4/3 10/10/3 7/7/3
f 2/2/4 1/1/4 7/7/4 8/8/4
f 4/4/5 3/3/5 9/9/5 10/10/5
f 6/6/6 5/5/6 11/11/6 12/12/6
f 5/5/7 2/2/7 8/8/7 11/11/7
f 3/3/5 6/6/5 12/12/5 9/9/5
