o sigma
v -0.017375 0.035592 5e-05
v 0.0 0.0 5e-05
v 0.0 0.04758 5e-05
v 0.017375 0.035592 5e-05
v -0.017375 0.035592 -5e-05
v 0.0 0.0 -5e-05
v 0.0 0.04758 -5e-05
v 0.017375 0.035592 -5e-05
vn -0.0 -0.0 1.0
vn -0.0 -0.0 -1.0
vn -0.5679 0.8231 -0.0
vn -0.8986 -0.4387 -0.0
vn 0.5679 0.8231 -0.0
vn 0.8986 -0.4387 -0.0
vt 0.8651744430432955 0.7480453972257252
vt 0.5 0.0
vt 0.5 1.0
vt 0.1348255569567045 0.7480453972257252
vt 0.13482555695670445 0.7480453972257252
vt 0.5 0.0
vt 0.5 1.0
vt 0.8651744430432955 0.7480453972257252
f 3/3/1 1/1/1 2/2/1
f 3/3/1 2/2/1 4/4/1
f 7/7/2 6/6/2 5/5/2
f 7/7/2 8/8/2 6/6/2
f 1/1/3 3/3/3 7/7/3 5/5/3
f 2/2/4 1/1/4 5/5/4 6/6/4
f 3/3/5 4/4/5 8/8/5 7/7/5
f 4/4/6 2/2/6 6/6/6 8/8/6
