o skull
v -0.011775 0.00842 5e-05
v 0.0 0.0 5e-05
v -0.01581 0.035845 5e-05
v 0.0 0.046252 5e-05
v 0.0 0.036274 5e-05
v -0.012338 0.01589 5e-05
v 0.0 0.023887 5e-05
v -0.015566 0.023513 5e-05
v 0.0 0.030135 5e-05
v -0.015852 0.019873 5e-05
v -0.002777 9.9e-05 5e-05
v -0.005828 0.046391 5e-05
v -0.00462 0.018246 5e-05
v -0.005879 0.033988 5e-05
v -0.004962 0.02772 5e-05
v -0.01235 0.042546 5e-05
v -0.008392 0.02057 5e-05
v -0.012011 0.035291 5e-05
v -0.009113 0.026406 5e-05
v -0.00798 0.004232 5e-05
v 0.011775 0.00842 5e-05
v 0.01581 0.035845 5e-05
v 0.012338 0.01589 5e-05
v 0.015566 0.023513 5e-05
v 0.015852 0.019873 5e-05
v 0.002777 9.9e-05 5e-05
v 0.005828 0.046391 5e-05
v 0.00462 0.018246 5e-05
v 0.005879 0.033988 5e-05
v 0.004962 0.02772 5e-05
v 0.01235 0.042546 5e-05
v 0.008392 0.02057 5e-05
v 0.012011 0.035291 5e-05
v 0.009113 0.026406 5e-05
v 0.00798 0.004232 5e-05
v -0.011775 0.00842 -5e-05
v 0.0 0.0 -5e-05
v -0.01581 0.035845 -5e-05
v 0.0 0.046252 -5e-05
v 0.0 0.036274 -5e-05
v -0.012338 0.01589 -5e-05
v 0.0 0.023887 -5e-05
v -0.015566 0.023513 -5e-05
v 0.0 0.030135 -5e-05
v -0.015852 0.019873 -5e-05
v -0.002777 9.9e-05 -5e-05
v -0.005828 0.046391 -5e-05
v -0.00462 0.018246 -5e-05
v -0.005879 0.033988 -5e-05
v -0.004962 0.02772 -5e-05
v -0.01235 0.042546 -5e-05
v -0.008392 0.02057 -5e-05
v -0.012011 0.035291 -5e-05
v -0.009113 0.026406 -5e-05
v -0.00798 0.004232 -5e-05
v 0.011775 0.00842 -5e-05
v 0.01581 0.035845 -5e-05
v 0.012338 0.01589 -5e-05
v 0.015566 0.023513 -5e-05
v 0.015852 0.019873 -5e-05
v 0.002777 9.9e-05 -5e-05
v 0.005828 0.046391 -5e-05
v 0.00462 0.018246 -5e-05
v 0.005879 0.033988 -5e-05
v 0.004962 0.02772 -5e-05
v 0.01235 0.042546 -5e-05
v 0.008392 0.02057 -5e-05
v 0.012011 0.035291 -5e-05
v 0.009113 0.026406 -5e-05
v 0.00798 0.004232 -5e-05
vn -0.0 -0.0 1.0
vn -0.0 -0.0 -1.0
vn -0.9972 -0.0752 -0.0
vn -0.0357 -0.9994 -0.0
vn -0.8885 0.4589 -0.0
vn -0.7499 -0.6615 -0.0
vn -0.9998 -0.0198 -0.0
vn -0.9969 0.0784 -0.0
vn -0.6219 -0.7831 -0.0
vn 0.0239 0.9997 -0.0
vn -0.5079 0.8614 -0.0
vn -0.7411 -0.6714 -0.0
vn 0.9972 -0.0752 -0.0
vn 0.0357 -0.9994 -0.0
vn 0.8885 0.4589 -0.0
vn 0.7499 -0.6615 -0.0
vn 0.9998 -0.0198 -0.0
vn 0.9969 0.0784 -0.0
vn 0.6219 -0.7831 -0.0
vn -0.0239 0.9997 -0.0
vn 0.5079 0.8614 -0.0
vn 0.7411 -0.6714 -0.0
vt 0.7538207842038327 0.18150072212282556
vt 0.5 0.0
vt 0.8407988618482034 0.772671423336423
vt 0.5 0.9970037291716065
vt 0.5 0.7819189066844862
vt 0.7659567588540881 0.3425233342674226
vt 0.5 0.5149059084736263
vt 0.8355392209695847 0.5068439999137764
vt 0.5 0.6495872044146493
vt 0.8417042098682934 0.4283805048393007
vt 0.5598607488521481 0.002134034618783816
vt 0.625627815740122 1.0
vt 0.5995882822099114 0.3933090470134293
vt 0.6267271669073743 0.7326421073052962
vt 0.6069604018020737 0.5975296932594685
vt 0.766215429716971 0.917117544351275
vt 0.6808971567760989 0.4434049707917484
vt 0.7589079778405294 0.7607294518333297
vt 0.6964389644543123 0.5692052337737923
vt 0.6720161238171196 0.09122459097669805
vt 0.2461792157961673 0.18150072212282556
vt 0.1592011381517966 0.772671423336423
vt 0.2340432411459119 0.3425233342674226
vt 0.16446077903041534 0.5068439999137764
vt 0.15829579013170658 0.4283805048393007
vt 0.4401392511478519 0.002134034618783816
vt 0.37437218425987795 1.0
vt 0.40041171779008855 0.3933090470134293
vt 0.3732728330926257 0.7326421073052962
vt 0.39303959819792633 0.5975296932594685
vt 0.23378457028302901 0.917117544351275
vt 0.31910284322390114 0.4434049707917484
vt 0.24109202215947056 0.7607294518333297
vt 0.3035610355456877 0.5692052337737923
vt 0.3279838761828804 0.09122459097669805
vt 0.24617921579616736 0.18150072212282556
vt 0.5 0.0
vt 0.15920113815179665 0.772671423336423
vt 0.5 0.9970037291716065
vt 0.5 0.7819189066844862
vt 0.2340432411459119 0.3425233342674226
vt 0.5 0.5149059084736263
vt 0.1644607790304154 0.5068439999137764
vt 0.5 0.6495872044146493
vt 0.15829579013170658 0.4283805048393007
vt 0.44013925114785196 0.002134034618783816
vt 0.374372184259878 1.0
vt 0.4004117177900886 0.3933090470134293
vt 0.3732728330926257 0.7326421073052962
vt 0.39303959819792633 0.5975296932594685
vt 0.23378457028302907 0.917117544351275
vt 0.3191028432239012 0.4434049707917484
vt 0.24109202215947056 0.7607294518333297
vt 0.30356103554568775 0.5692052337737923
vt 0.32798387618288033 0.09122459097669805
vt 0.7538207842038327 0.18150072212282556
vt 0.8407988618482034 0.772671423336423
vt 0.7659567588540881 0.3425233342674226
vt 0.8355392209695847 0.5068439999137764
vt 0.8417042098682934 0.4283805048393007
vt 0.5598607488521481 0.002134034618783816
vt 0.625627815740122 1.0
vt 0.5995882822099114 0.3933090470134293
vt 0.6267271669073743 0.7326421073052962
vt 0.6069604018020737 0.5975296932594685
vt 0.766215429716971 0.917117544351275
vt 0.6808971567760989 0.4434049707917484
vt 0.7589079778405294 0.7607294518333297
vt 0.6964389644543123 0.5692052337737923
vt 0.6720161238171196 0.09122459097669805
f 14/14/1 5/5/1 4/4/1 12/12/1
f 11/11/1 2/2/1 7/7/1 13/13/1
f 15/15/1 9/9/1 5/5/1 14/14/1
f 13/13/1 7/7/1 9/9/1 15/15/1
f 17/17/1 13/13/1 15/15/1 19/19/1
f 19/19/1 15/15/1 14/14/1 18/18/1
f 20/20/1 11/11/1 13/13/1 17/17/1
f 18/18/1 14/14/1 12/12/1 16/16/1
f 8/8/1 18/18/1 16/16/1 3/3/1
f 1/1/1 20/20/1 17/17/1 6/6/1
f 10/10/1 19/19/1 18/18/1 8/8/1
f 6/6/1 17/17/1 19/19/1 10/10/1
f 29/29/1 27/27/1 4/4/1 5/5/1
f 26/26/1 28/28/1 7/7/1 2/2/1
f 30/30/1 29/29/1 5/5/1 9/9/1
f 28/28/1 30/30/1 9/9/1 7/7/1
f 32/32/1 34/34/1 30/30/1 28/28/1
f 34/34/1 33/33/1 29/29/1 30/30/1
f 35/35/1 32/32/1 28/28/1 26/26/1
f 33/33/1 31/31/1 27/27/1 29/29/1
f 24/24/1 22/22/1 31/31/1 33/33/1
f 21/21/1 23/23/1 32/32/1 35/35/1
f 25/25/1 24/24/1 33/33/1 34/34/1
f 23/23/1 25/25/1 34/34/1 32/32/1
f 49/49/2 47/47/2 39/39/2 40/40/2
f 46/46/2 48/48/2 42/42/2 37/37/2
f 50/50/2 49/49/2 40/40/2 44/44/2
f 48/48/2 50/50/2 44/44/2 42/42/2
f 52/52/2 54/54/2 50/50/2 48/48/2
f 54/54/2 53/53/2 49/49/2 50/50/2
f 55/55/2 52/52/2 48/48/2 46/46/2
f 53/53/2 51/51/2 47/47/2 49/49/2
f 43/43/2 38/38/2 51/51/2 53/53/2
f 36/36/2 41/41/2 52/52/2 55/55/2
f 45/45/2 43/43/2 53/53/2 54/54/2
f 41/41/2 45/45/2 54/54/2 52/52/2
f 64/64/2 40/40/2 39/39/2 62/62/2
f 61/61/2 37/37/2 42/42/2 63/63/2
f 65/65/2 44/44/2 40/40/2 64/64/2
f 63/63/2 42/42/2 44/44/2 65/65/2
f 67/67/2 63/63/2 65/65/2 69/69/2
f 69/69/2 65/65/2 64/64/2 68/68/2
f 70/70/2 61/61/2 63/63/2 67/67/2
f 68/68/2 64/64/2 62/62/2 66/66/2
f 59/59/2 68/68/2 66/66/2 57/57/2
f 56/56/2 70/70/2 67/67/2 58/58/2
f 60/60/2 69/69/2 68/68/2 59/59/2
f 58/58/2 67/67/2 69/69/2 60/60/2
f 1/1/3 6/6/3 41/41/3 36/36/3
f 2/2/4 11/11/4 46/46/4 37/37/4
f 3/3/5 16/16/5 51/51/5 38/38/5
f 6/6/6 10/10/6 45/45/6 41/41/6
f 8/8/7 3/3/7 38/38/7 43/43/7
f 10/10/8 8/8/8 43/43/8 45/45/8
f 11/11/9 20/20/9 55/55/9 46/46/9
f 12/12/10 4/4/10 39/39/10 47/47/10
f 16/16/11 12/12/11 47/47/11 51/51/11
f 20/20/12 1/1/12 36/36/12 55/55/12
f 23/23/13 21/21/13 56/56/13 58/58/13
f 26/26/14 2/2/14 37/37/14 61/61/14
f 31/31/15 22/22/15 57/57/15 66/66/15
f 25/25/16 23/23/16 58/58/16 60/60/16
f 22/22/17 24/24/17 59/59/17 57/57/17
f 24/24/18 25/25/18 60/60/18 59/59/18
f 35/35/19 26/26/19 61/61/19 70/70/19
f 4/4/20 27/27/20 62/62/20 39/39/20
f 27/27/21 31/31/21 66/66/21 62/62/21
f 21/21/22 35/35/22 70/70/22 56/56/22
