o tomahawk
v -0.012906 0.030409 5e-05
v 0.0 0.0 5e-05
v -0.009307 0.045749 5e-05
v 0.0 0.047784 5e-05
v 0.0 0.036274 5e-05
v -0.009758 0.033602 5e-05
v 0.0 0.023887 5e-05
v -0.012531 0.043841 5e-05
v 0.0 0.030135 5e-05
v -0.013344 0.041361 5e-05
v -0.00828 0.014714 5e-05
v -0.000806 0.047724 5e-05
v -0.00462 0.025903 5e-05
v -0.003343 0.037717 5e-05
v -0.004465 0.031648 5e-05
v -0.005469 0.04708 5e-05
v -0.008392 0.027977 5e-05
v -0.00684 0.039467 5e-05
v -0.007025 0.035454 5e-05
v -0.013645 0.026134 5e-05
v 0.012906 0.030409 5e-05
v 0.009307 0.045749 5e-05
v 0.009758 0.033602 5e-05
v 0.012531 0.043841 5e-05
v 0.013344 0.041361 5e-05
v 0.00828 0.014714 5e-05
v 0.000806 0.047724 5e-05
v 0.00462 0.025903 5e-05
v 0.003343 0.037717 5e-05
v 0.004465 0.031648 5e-05
v 0.005469 0.04708 5e-05
v 0.008392 0.027977 5e-05
v 0.00684 0.039467 5e-05
v 0.007025 0.035454 5e-05
v 0.013645 0.026134 5e-05
v -0.012906 0.030409 -5e-05
v -0.0 0.0 -5e-05
v -0.009307 0.045749 -5e-05
v 0.0 0.047784 -5e-05
v 0.0 0.036274 -5e-05
v -0.009758 0.033602 -5e-05
v -0.0 0.023887 -5e-05
v -0.012531 0.043841 -5e-05
v 0.0 0.030135 -5e-05
v -0.013344 0.041361 -5e-05
v -0.00828 0.014714 -5e-05
v -0.000806 0.047724 -5e-05
v -0.00462 0.025903 -5e-05
v -0.003343 0.037717 -5e-05
v -0.004465 0.031648 -5e-05
v -0.005469 0.04708 -5e-05
v -0.008392 0.027977 -5e-05
v -0.00684 0.039467 -5e-05
v -0.007025 0.035454 -5e-05
v -0.013645 0.026134 -5e-05
v 0.012906 0.030409 -5e-05
v 0.009307 0.045749 -5e-05
v 0.009758 0.033602 -5e-05
v 0.012531 0.043841 -5e-05
v 0.013344 0.041361 -5e-05
v 0.00828 0.014714 -5e-05
v 0.000806 0.047724 -5e-05
v 0.00462 0.025903 -5e-05
v 0.003343 0.037717 -5e-05
v 0.004465 0.031648 -5e-05
v 0.005469 0.04708 -5e-05
v 0.008392 0.027977 -5e-05
v 0.00684 0.039467 -5e-05
v 0.007025 0.035454 -5e-05
v 0.013645 0.026134 -5e-05
vn -0.0 -0.0 1.0
vn -0.0 -0.0 -1.0
vn -0.7122 0.702 -0.0
vn -0.8715 -0.4904 -0.0
vn -0.3276 0.9448 -0.0
vn -0.9077 -0.4195 -0.0
vn -0.5095 0.8605 -0.0
vn -0.9502 0.3117 -0.0
vn -0.9051 -0.4252 -0.0
vn -0.0739 0.9973 -0.0
vn -0.1368 0.9906 -0.0001
vn -0.9854 0.1704 -0.0
vn 0.7122 0.702 -0.0
vn 0.8715 -0.4904 -0.0
vn 0.3276 0.9448 -0.0
vn 0.9077 -0.4195 -0.0
vn 0.5095 0.8605 -0.0
vn 0.9502 0.3117 -0.0
vn 0.9051 -0.4252 -0.0
vn 0.0739 0.9973 -0.0
vn 0.1368 0.9906 -0.0001
vn 0.9854 0.1704 -0.0
vt 0.7700904068307384 0.6363845638707517
vt 0.5 0.0
vt 0.694772308722585 0.9574125230202578
vt 0.5 1.0
vt 0.5 0.7591243931022936
vt 0.7042106144316089 0.703206094090072
vt 0.5 0.49989536246442323
vt 0.7622425916624811 0.9174828394441654
vt 0.5 0.6306504269211451
vt 0.7792566549472627 0.8655826217980914
vt 0.673279758915118 0.3079273396952955
vt 0.516867570734974 0.9987443495730789
vt 0.5966850828729282 0.5420852168089737
vt 0.5699606562866231 0.7893227858697472
vt 0.5934413192700485 0.6623137451866734
vt 0.6144525364138624 0.9852670349907918
vt 0.6756236397120375 0.5854888665662146
vt 0.6431441486690106 0.825945923321614
vt 0.6470157374853507 0.7419638372677047
vt 0.7855558345889837 0.5469194709526202
vt 0.22990959316926163 0.6363845638707517
vt 0.305227691277415 0.9574125230202578
vt 0.29578938556839107 0.703206094090072
vt 0.2377574083375189 0.9174828394441654
vt 0.2207433450527373 0.8655826217980914
vt 0.32672024108488196 0.3079273396952955
vt 0.483132429265026 0.9987443495730789
vt 0.4033149171270718 0.5420852168089737
vt 0.4300393437133768 0.7893227858697472
vt 0.4065586807299515 0.6623137451866734
vt 0.38554746358613756 0.9852670349907918
vt 0.32437636028796246 0.5854888665662146
vt 0.3568558513309894 0.825945923321614
vt 0.3529842625146493 0.7419638372677047
vt 0.2144441654110163 0.5469194709526202
vt 0.22990959316926168 0.6363845638707517
vt 0.5 0.0
vt 0.30522769127741506 0.9574125230202578
vt 0.5 1.0
vt 0.5 0.7591243931022936
vt 0.29578938556839107 0.703206094090072
vt 0.5 0.49989536246442323
vt 0.23775740833751885 0.9174828394441654
vt 0.5 0.6306504269211451
vt 0.2207433450527373 0.8655826217980914
vt 0.32672024108488196 0.3079273396952955
vt 0.483132429265026 0.9987443495730789
vt 0.4033149171270718 0.5420852168089737
vt 0.4300393437133769 0.7893227858697472
vt 0.40655868072995144 0.6623137451866734
vt 0.3855474635861376 0.9852670349907918
vt 0.32437636028796246 0.5854888665662146
vt 0.35685585133098946 0.825945923321614
vt 0.35298426251464926 0.7419638372677047
vt 0.21444416541101624 0.5469194709526202
vt 0.7700904068307384 0.6363845638707517
vt 0.694772308722585 0.9574125230202578
vt 0.7042106144316089 0.703206094090072
vt 0.7622425916624811 0.9174828394441654
vt 0.7792566549472627 0.8655826217980914
vt 0.673279758915118 0.3079273396952955
vt 0.516867570734974 0.9987443495730789
vt 0.5966850828729282 0.5420852168089737
vt 0.5699606562866232 0.7893227858697472
vt 0.5934413192700485 0.6623137451866734
vt 0.6144525364138624 0.9852670349907918
vt 0.6756236397120375 0.5854888665662146
vt 0.6431441486690106 0.825945923321614
vt 0.6470157374853507 0.7419638372677047
vt 0.7855558345889837 0.5469194709526202
f 14/14/1 5/5/1 4/4/1 12/12/1
f 11/11/1 2/2/1 7/7/1 13/13/1
f 15/15/1 9/9/1 5/5/1 14/14/1
f 13/13/1 7/7/1 9/9/1 15/15/1
f 17/17/1 13/13/1 15/15/1 19/19/1
f 19/19/1 15/15/1 14/14/1 18/18/1
f 20/20/1 11/11/1 13/13/1 17/17/1
f 18/18/1 14/14/1 12/12/1 16/16/1
f 8/8/1 18/18/1 16/16/1 3/3/1
f 1/1/1 20/20/1 17/17/1 6/6/1
f 10/10/1 19/19/1 18/18/1 8/8/1
f 6/6/1 17/17/1 19/19/1 10/10/1
f 29/29/1 27/27/1 4/4/1 5/5/1
f 26/26/1 28/28/1 7/7/1 2/2/1
f 30/30/1 29/29/1 5/5/1 9/9/1
f 28/28/1 30/30/1 9/9/1 7/7/1
f 32/32/1 34/34/1 30/30/1 28/28/1
f 34/34/1 33/33/1 29/29/1 30/30/1
f 35/35/1 32/32/1 28/28/1 26/26/1
f 33/33/1 31/31/1 27/27/1 29/29/1
f 24/24/1 22/22/1 31/31/1 33/33/1
f 21/21/1 23/23/1 32/32/1 35/35/1
f 25/25/1 24/24/1 33/33/1 34/34/1
f 23/23/1 25/25/1 34/34/1 32/32/1
f 49/49/2 47/47/2 39/39/2 40/40/2
f 46/46/2 48/48/2 42/42/2 37/37/2
f 50/50/2 49/49/2 40/40/2 44/44/2
f 48/48/2 50/50/2 44/44/2 42/42/2
f 52/52/2 54/54/2 50/50/2 48/48/2
f 54/54/2 53/53/2 49/49/2 50/50/2
f 55/55/2 52/52/2 48/48/2 46/46/2
f 53/53/2 51/51/2 47/47/2 49/49/2
f 43/43/2 38/38/2 51/51/2 53/53/2
f 36/36/2 41/41/2 52/52/2 55/55/2
f 45/45/2 43/43/2 53/53/2 54/54/2
f 41/41/2 45/45/2 54/54/2 52/52/2
f 64/64/2 40/40/2 39/39/2 62/62/2
f 61/61/2 37/37/2 42/42/2 63/63/2
f 65/65/2 44/44/2 40/40/2 64/64/2
f 63/63/2 42/42/2 44/44/2 65/65/2
f 67/67/2 63/63/2 65/65/2 69/69/2
f 69/69/2 65/65/2 64/64/2 68/68/2
f 70/70/2 61/61/2 63/63/2 67/67/2
f 68/68/2 64/64/2 62/62/2 66/66/2
f 59/59/2 68/68/2 66/66/2 57/57/2
f 56/56/2 70/70/2 67/67/2 58/58/2
f 60/60/2 69/69/2 68/68/2 59/59/2
f 58/58/2 67/67/2 69/69/2 60/60/2
f 1/1/3 6/6/3 41/41/3 36/36/3
f 2/2/4 11/11/4 46/46/4 37/37/4
f 3/3/5 16/16/5 51/51/5 38/38/5
f 6/6/6 10/10/6 45/45/6 41/41/6
f 8/8/7 3/3/7 38/38/7 43/43/7
f 10/10/8 8/8/8 43/43/8 45/45/8
f 11/11/9 20/20/9 55/55/9 46/46/9
f 12/12/10 4/4/10 39/39/10 47/47/10
f 16/16/11 12/12/11 47/47/11 51/51/11
f 20/20/12 1/1/12 36/36/12 55/55/12
f 23/23/13 21/21/13 56/56/13 58/58/13
f 26/26/14 2/2/14 37/37/14 61/61/14
f 31/31/15 22/22/15 57/57/15 66/66/15
f 25/25/16 23/23/16 58/58/16 60/60/16
f 22/22/17 24/24/17 59/59/17 57/57/17
f 24/24/18 25/25/18 60/60/18 59/59/18
f 35/35/19 26/26/19 61/61/19 70/70/19
f 4/4/20 27/27/20 62/62/20 39/39/20
f 27/27/21 31/31/21 66/66/21 62/62/21
f 21/21/22 35/35/22 70/70/22 56/56/22
