o urban
v -0.018576 0.024051 5e-05
v 0.0 0.0 5e-05
v -0.011336 0.0473 5e-05
v 0.0 0.049335 5e-05
v 0.0 0.036274 5e-05
v -0.020154 0.031282 5e-05
v 0.0 0.023887 5e-05
v -0.01485 0.044872 5e-05
v 0.0 0.030135 5e-05
v -0.019014 0.03801 5e-05
v -0.012919 0.009645 5e-05
v -0.002894 0.048977 5e-05
v -0.00462 0.025903 5e-05
v -0.003343 0.037717 5e-05
v -0.004465 0.031648 5e-05
v -0.007378 0.048214 5e-05
v -0.008392 0.027977 5e-05
v -0.00684 0.039467 5e-05
v -0.007025 0.035454 5e-05
v -0.012872 0.017715 5e-05
v 0.018576 0.024051 5e-05
v 0.011336 0.0473 5e-05
v 0.020154 0.031282 5e-05
v 0.01485 0.044872 5e-05
v 0.019014 0.03801 5e-05
v 0.012919 0.009645 5e-05
v 0.002894 0.048977 5e-05
v 0.00462 0.025903 5e-05
v 0.003343 0.037717 5e-05
v 0.004465 0.031648 5e-05
v 0.007378 0.048214 5e-05
v 0.008392 0.027977 5e-05
v 0.00684 0.039467 5e-05
v 0.007025 0.035454 5e-05
v 0.012872 0.017715 5e-05
v -0.018576 0.024051 -5e-05
v 0.0 0.0 -5e-05
v -0.011336 0.0473 -5e-05
v 0.0 0.049335 -5e-05
v -0.0 0.036274 -5e-05
v -0.020154 0.031282 -5e-05
v 0.0 0.023887 -5e-05
v -0.01485 0.044872 -5e-05
v 0.0 0.030135 -5e-05
v -0.019014 0.03801 -5e-05
v -0.012919 0.009645 -5e-05
v -0.002894 0.048977 -5e-05
v -0.00462 0.025903 -5e-05
v -0.003343 0.037717 -5e-05
v -0.004465 0.031648 -5e-05
v -0.007378 0.048214 -5e-05
v -0.008392 0.027977 -5e-05
v -0.00684 0.039467 -5e-05
v -0.007025 0.035454 -5e-05
v -0.012872 0.017715 -5e-05
v 0.018576 0.024051 -5e-05
v 0.011336 0.0473 -5e-05
v 0.020154 0.031282 -5e-05
v 0.01485 0.044872 -5e-05
v 0.019014 0.03801 -5e-05
v 0.012919 0.009645 -5e-05
v 0.002894 0.048977 -5e-05
v 0.00462 0.025903 -5e-05
v 0.003343 0.037717 -5e-05
v 0.004465 0.031648 -5e-05
v 0.007378 0.048214 -5e-05
v 0.008392 0.027977 -5e-05
v 0.00684 0.039467 -5e-05
v 0.007025 0.035454 -5e-05
v 0.012872 0.017715 -5e-05
vn -0.0 -0.0 1.0
vn -0.0 -0.0 -1.0
vn -0.977 -0.2132 -0.0
vn -0.5982 -0.8013 -0.0
vn -0.2249 0.9744 -0.0
vn -0.986 0.167 -0.0
vn -0.5685 0.8227 -0.0
vn -0.8549 0.5188 -0.0
vn -1.0 0.0058 -0.0
vn -0.1228 0.9924 -0.0
vn -0.1678 0.9858 -0.0
vn -0.7432 -0.6691 -0.0
vn 0.977 -0.2132 -0.0
vn 0.5982 -0.8013 -0.0
vn 0.2249 0.9744 -0.0
vn 0.986 0.167 -0.0
vn 0.5685 0.8227 -0.0
vn 0.8549 0.5188 -0.0
vn 1.0 0.0058 -0.0
vn 0.1228 0.9924 -0.0
vn 0.1678 0.9858 -0.0
vn 0.7432 -0.6691 -0.0
vt 0.8765278200060809 0.4875038005472788
vt 0.5 0.0
vt 0.729776021080369 0.9587513935340023
vt 0.5 1.0
vt 0.5 0.7352589439545962
vt 0.9085132259045303 0.634073173203608
vt 0.5 0.4841795885274146
vt 0.8010033444816054 0.9095368399716227
vt 0.5 0.6108239586500456
vt 0.8854058984493767 0.770446944359988
vt 0.7618627749062532 0.1955001520218912
vt 0.5586601803993108 0.9927434883956624
vt 0.5936454849498327 0.5250430728691599
vt 0.5677612242829635 0.7645079558123037
vt 0.5905036991993514 0.6414918414918416
vt 0.6495490017229147 0.977277794669099
vt 0.6701023614067092 0.5670821931691497
vt 0.6386439647309212 0.7999797304145131
vt 0.6423938380460119 0.7186378838552752
vt 0.7609101043883653 0.3590757069017939
vt 0.12347217999391913 0.4875038005472788
vt 0.270223978919631 0.9587513935340023
vt 0.09148677409546968 0.634073173203608
vt 0.19899665551839463 0.9095368399716227
vt 0.11459410155062333 0.770446944359988
vt 0.2381372250937468 0.1955001520218912
vt 0.44133981960068913 0.9927434883956624
vt 0.4063545150501672 0.5250430728691599
vt 0.4322387757170366 0.7645079558123037
vt 0.4094963008006486 0.6414918414918416
vt 0.35045099827708526 0.977277794669099
vt 0.3298976385932908 0.5670821931691497
vt 0.3613560352690788 0.7999797304145131
vt 0.3576061619539881 0.7186378838552752
vt 0.23908989561163474 0.3590757069017939
vt 0.12347217999391913 0.4875038005472788
vt 0.5 0.0
vt 0.27022397891963107 0.9587513935340023
vt 0.5 1.0
vt 0.5 0.7352589439545962
vt 0.09148677409546974 0.634073173203608
vt 0.5 0.4841795885274146
vt 0.19899665551839463 0.9095368399716227
vt 0.5 0.6108239586500456
vt 0.11459410155062327 0.770446944359988
vt 0.2381372250937468 0.1955001520218912
vt 0.4413398196006892 0.9927434883956624
vt 0.40635451505016723 0.5250430728691599
vt 0.43223877571703656 0.7645079558123037
vt 0.4094963008006486 0.6414918414918416
vt 0.35045099827708526 0.977277794669099
vt 0.32989763859329074 0.5670821931691497
vt 0.3613560352690788 0.7999797304145131
vt 0.35760616195398803 0.7186378838552752
vt 0.23908989561163474 0.3590757069017939
vt 0.8765278200060809 0.4875038005472788
vt 0.729776021080369 0.9587513935340023
vt 0.9085132259045303 0.634073173203608
vt 0.8010033444816054 0.9095368399716227
vt 0.8854058984493767 0.770446944359988
vt 0.7618627749062532 0.1955001520218912
vt 0.5586601803993109 0.9927434883956624
vt 0.5936454849498328 0.5250430728691599
vt 0.5677612242829634 0.7645079558123037
vt 0.5905036991993514 0.6414918414918416
vt 0.6495490017229147 0.977277794669099
vt 0.6701023614067092 0.5670821931691497
vt 0.6386439647309212 0.7999797304145131
vt 0.6423938380460119 0.7186378838552752
vt 0.7609101043883653 0.3590757069017939
f 14/14/1 5/5/1 4/4/1 12/12/1
f 11/11/1 2/2/1 7/7/1 13/13/1
f 15/15/1 9/9/1 5/5/1 14/14/1
f 13/13/1 7/7/1 9/9/1 15/15/1
f 17/17/1 13/13/1 15/15/1 19/19/1
f 19/19/1 15/15/1 14/14/1 18/18/1
f 20/20/1 11/11/1 13/13/1 17/17/1
f 18/18/1 14/14/1 12/12/1 16/16/1
f 8/8/1 18/18/1 16/16/1 3/3/1
f 1/1/1 20/20/1 17/17/1 6/6/1
f 10/10/1 19/19/1 18/18/1 8/8/1
f 6/6/1 17/17/1 19/19/1 10/10/1
f 29/29/1 27/27/1 4/4/1 5/5/1
f 26/26/1 28/28/1 7/7/1 2/2/1
f 30/30/1 29/29/1 5/5/1 9/9/1
f 28/28/1 30/30/1 9/9/1 7/7/1
f 32/32/1 34/34/1 30/30/1 28/28/1
f 34/34/1 33/33/1 29/29/1 30/30/1
f 35/35/1 32/32/1 28/28/1 26/26/1
f 33/33/1 31/31/1 27/27/1 29/29/1
f 24/24/1 22/22/1 31/31/1 33/33/1
f 21/21/1 23/23/1 32/32/1 35/35/1
f 25/25/1 24/24/1 33/33/1 34/34/1
f 23/23/1 25/25/1 34/34/1 32/32/1
f 49/49/2 47/47/2 39/39/2 40/40/2
f 46/46/2 48/48/2 42/42/2 37/37/2
f 50/50/2 49/49/2 40/40/2 44/44/2
f 48/48/2 50/50/2 44/44/2 42/42/2
f 52/52/2 54/54/2 50/50/2 48/48/2
f 54/54/2 53/53/2 49/49/2 50/50/2
f 55/55/2 52/52/2 48/48/2 46/46/2
f 53/53/2 51/51/2 47/47/2 49/49/2
f 43/43/2 38/38/2 51/51/2 53/53/2
f 36/36/2 41/41/2 52/52/2 55/55/2
f 45/45/2 43/43/2 53/53/2 54/54/2
f 41/41/2 45/45/2 54/54/2 52/52/2
f 64/64/2 40/40/2 39/39/2 62/62/2
f 61/61/2 37/37/2 42/42/2 63/63/2
f 65/65/2 44/44/2 40/40/2 64/64/2
f 63/63/2 42/42/2 44/44/2 65/65/2
f 67/67/2 63/63/2 65/65/2 69/69/2
f 69/69/2 65/65/2 64/64/2 68/68/2
f 70/70/2 61/61/2 63/63/2 67/67/2
f 68/68/2 64/64/2 62/62/2 66/66/2
f 59/59/2 68/68/2 66/66/2 57/57/2
f 56/56/2 70/70/2 67/67/2 58/58/2
f 60/60/2 69/69/2 68/68/2 59/59/2
f 58/58/2 67/67/2 69/69/2 60/60/2
f 1/1/3 6/6/3 41/41/3 36/36/3
f 2/2/4 11/11/4 46/46/4 37/37/4
f 3/3/5 16/16/5 51/51/5 38/38/5
f 6/6/6 10/10/6 45/45/6 41/41/6
f 8/8/7 3/3/7 38/38/7 43/43/7
f 10/10/8 8/8/8 43/43/8 45/45/8
f 11/11/9 20/20/9 55/55/9 46/46/9
f 12/12/10 4/4/10 39/39/10 47/47/10
f 16/16/11 12/12/11 47/47/11 51/51/11
f 20/20/12 1/1/12 36/36/12 55/55/12
f 23/23/13 21/21/13 56/56/13 58/58/13
f 26/26/14 2/2/14 37/37/14 61/61/14
f 31/31/15 22/22/15 57/57/15 66/66/15
f 25/25/16 23/23/16 58/58/16 60/60/16
f 22/22/17 24/24/17 59/59/17 57/57/17
f 24/24/18 25/25/18 60/60/18 59/59/18
f 35/35/19 26/26/19 61/61/19 70/70/19
f 4/4/20 27/27/20 62/62/20 39/39/20
f 27/27/21 31/31/21 66/66/21 62/62/21
f 21/21/22 35/35/22 70/70/22 56/56/22
